<svg width="40" height="51" viewBox="0 0 40 51" fill="none" xmlns="http://www.w3.org/2000/svg">
<g id="IMAGE" clip-path="url(#clip0_13_39)">
<g id="Logo">
<path id="Path 1" d="M6.7453 32.9297C3.68548 29.1035 2.15105 24.8372 2.14203 20.1308C2.14203 15.1459 3.90211 10.8976 7.42227 7.3859C10.8881 3.96386 15.0761 2.21242 19.9864 2.13159C24.8875 2.18548 29.0845 3.93691 32.5777 7.3859C36.0978 10.8888 37.8579 15.1371 37.8579 20.1308C37.8579 24.8462 36.3145 29.1125 33.2276 32.9297L26.3498 41.121C26.3498 41.121 25.2938 41.4443 24.7251 40.8516C24.4814 40.6091 14.8958 28.376 14.8958 28.376" stroke="#35B8BE" stroke-width="5" stroke-miterlimit="3" stroke-linecap="square"/>
<path id="Path 2" d="M13.7585 27.0019C13.2689 26.4967 12.8989 25.8891 12.6754 25.2235C12.4525 24.5559 12.3786 23.848 12.4587 23.149C12.54 21.667 13.1356 20.4548 14.273 19.4845C15.3832 18.5414 16.6558 18.1642 18.091 18.2989C18.9575 18.3528 19.7157 18.5684 20.3926 19.0265C20.8838 19.299 21.3236 19.6546 21.6923 20.0773L27.433 26.6788" stroke="#35B8BE" stroke-width="5" stroke-miterlimit="3" stroke-linecap="round" stroke-linejoin="round"/>
<path id="Path 3" d="M20.0133 47.9918L6.7453 32.9296M25.4833 42.1987L13.7585 27.0017L25.4833 42.1987Z" stroke="#35B8BE" stroke-width="5" stroke-miterlimit="3" stroke-linecap="round"/>
</g>
</g>
<defs>
<clipPath id="clip0_13_39">
<rect width="40" height="51" fill="white"/>
</clipPath>
</defs>
</svg>
