<svg width="1440" height="593" viewBox="0 0 1440 593" fill="none" xmlns="http://www.w3.org/2000/svg">
<g clip-path="url(#clip0_1_689)">
<rect width="1440" height="593" fill="#F5FBFC"/>
<path d="M828.584 375.281C821.12 378.936 821.12 378.936 826.402 381.567C825.386 384.342 818.788 387.348 820.795 390.083C816.627 392.661 812.677 395.299 808.962 397.986C803.376 402.363 794.834 404.219 787.035 406.36C781.761 407.813 776.386 409.347 770.952 410.632C764.592 412.135 758.348 414.027 751.993 415.537C746.232 416.905 740.387 418.011 734.579 419.176C732.951 419.588 731.283 419.794 729.771 419.769C728.346 419.582 726.706 419.597 724.989 419.812C723.273 420.028 721.531 420.436 719.912 421.004C712.716 423.216 706.114 422.531 699.433 423.004C693.137 423.167 687.253 422.778 682.033 421.853C679.932 421.596 675.395 421.101 681.555 418.665C681.991 418.493 681.127 417.428 681.095 416.731C681.062 416.035 680.861 414.739 681.483 414.524C688.816 412.015 686.301 411.095 683.17 409.483C678.551 407.114 680.2 405.986 686.993 400.99C691.131 397.95 694.639 394.667 701.332 393.191C719.483 389.21 737.64 385.108 755.195 385.618C758.699 385.857 762.55 385.708 766.525 385.181C770.5 384.653 774.519 383.758 778.348 382.546C785.219 380.19 792.995 378.852 798.955 375.388C800.756 374.345 803.922 373.71 806.517 372.984C811.889 371.429 817.55 370.757 822.379 371.1C827.828 371.436 826.64 373.896 828.57 375.276" fill="#E5F1F3"/>
<path d="M1019.78 286.451C1021.48 287.832 1022.97 288.915 1024.21 290.089C1024.6 290.567 1024.76 291.114 1024.68 291.701C1024.69 293.322 1019.28 294.094 1019.46 295.921C1019.72 297.356 1019.26 298.93 1018.11 300.531C1017.06 301.803 1012.46 303.469 1012.66 304.205C1013.11 305.848 1012.79 306.788 1008.83 307.906C1008.1 308.113 1007.57 309.032 1007.26 309.603C1004.93 313.834 1004.93 313.831 995.533 315.519L999.886 316.936C996.738 317.373 993.614 317.706 990.536 317.935C987.298 318.015 984.153 317.965 981.127 317.785C978.096 317.464 974.644 317.566 971.069 318.083L981.613 319.505L980.994 320.172C978.859 320.198 976.767 320.167 974.725 320.079C964.638 319.397 954.827 318.414 944.496 318.014C935.538 317.866 928.194 316.086 923.693 312.971C926.53 312.065 930.224 311.277 927.081 309.786C923.646 308.158 926.083 306.117 930.939 303.599C926.241 302.787 920.38 302.154 927.062 297.577L939.892 298.494L941.184 297.573L930.149 294.359C934.825 292.429 939.246 290.893 944.293 291.62C945.703 291.82 948.327 290.966 950.317 290.774C958.983 289.94 958.971 289.971 962.529 286.617C963.212 285.976 963.819 285.334 964.466 284.69L966.237 282.929C970.815 281.511 975.116 280.247 979.314 278.862C987.871 276.275 996.972 275.041 1004.9 275.394C1009 275.403 1012.5 276.14 1016.61 276.114C1020.43 276.272 1023.39 277.217 1024.87 278.756C1028.62 281.274 1027.64 282.431 1019.76 286.45" fill="#E5F1F3"/>
<path d="M685.144 612.137C684.552 609.206 683.85 606.372 683.591 603.451C683.565 603.17 686.207 602.351 688.493 601.426C687.135 600.801 685.923 600.105 684.868 599.342C684.007 598.383 683.272 597.383 682.666 596.343C681.155 594.328 679.209 592.347 686.824 590.077C687.405 589.903 687.636 589.263 688.13 588.855C691.659 585.942 693.139 583.027 700.348 580.362C706.043 577.89 711.948 575.56 718.021 573.391C723.984 571.408 730.196 569.775 736.469 568.539C746.323 566.341 756.188 565.661 764.486 566.61C766.628 567.248 768.492 568.051 770.038 569.001L760.383 572.496C765.47 573.966 772.786 574.267 775.023 577.819L765.819 581.388L774.056 581.982C772.087 586.068 769.175 590.207 765.38 594.318C763.108 596.522 759.5 598.536 755.218 599.99C750.141 601.958 744.818 603.699 739.354 605.178C734.063 606.333 728.885 608.059 723.398 609.266C714.607 610.797 705.843 611.994 697.194 612.846C692.799 613.049 688.705 612.808 685.144 612.137" fill="#E5F1F3"/>
<path d="M580.723 334.953L556.231 333.192C561.339 334.582 567.254 335.425 573.735 335.686C576.215 335.893 579.981 335.461 579.776 337.268C579.758 339.101 579.122 341.034 577.891 342.999C577.407 343.666 573.43 344.693 571.254 344.934C568.786 345 566.469 344.861 564.391 344.521C564.125 345.632 564.417 346.324 563.745 346.876C562.351 348.018 558.827 349.475 559.016 350.124C560.08 353.739 553.597 357.152 550.526 360.589C549.647 361.476 548.42 362.327 546.935 363.079C545.45 363.83 543.746 364.463 541.949 364.929C534.586 366.348 529.224 369.895 520.779 371.348C517.198 371.07 513.03 371.481 508.959 372.513C505.322 373.565 501.543 374.286 497.875 374.627C494.206 374.969 490.731 374.924 487.681 374.494C484.259 374.064 480.665 373.786 476.929 373.665C476.644 369 476.671 364.168 475.97 359.491C475.249 354.594 482.885 350.734 490.35 347.146C495.803 344.529 500.807 340.848 508.81 340.399C520.156 334.499 533.154 334.236 545.479 331.531C553.229 330.256 560.824 329.771 567.743 330.109C573.546 329.961 577.584 332.48 582.407 333.81L580.723 334.953" fill="#E5F1F3"/>
<path d="M361.106 430.806L385.908 423.125C390.355 423.306 394.647 423.653 398.753 424.164C400.287 424.409 400.633 425.86 400.615 426.919C400.616 427.321 398.081 428.161 396.658 428.828C399.063 430.003 403.039 430.875 398.754 433.959C397.833 434.545 397.291 435.203 397.233 435.804C397.917 436.553 398.12 437.452 397.826 438.422C397.532 439.391 396.748 440.403 395.544 441.369C390.757 445.036 384.649 448.421 377.667 451.278C363.411 456.549 347.933 460.446 332.541 462.641C323.156 463.841 313.899 464.609 304.898 464.935C302.592 465.008 300.548 464.746 298.999 464.18C297.45 463.614 296.461 462.765 296.144 461.733C295.187 457.751 293.735 453.864 293.093 449.812C292.85 448.348 293.648 446.699 295.377 445.094C299.962 440.623 307.196 436.508 315.844 433.452C324.493 430.395 334.017 428.587 342.791 428.337C346.068 427.86 349.273 427.663 352.25 427.757C355.566 428.558 358.534 429.581 361.103 430.809" fill="#E5F1F3"/>
<path d="M579.89 241.787C582.525 239.832 586.166 238.128 590.251 236.937C594.336 235.746 598.64 235.135 602.499 235.196C611.178 234.683 619.563 234.667 627.492 235.146C637.578 236.327 648.151 237.073 659.121 237.377C664.417 237.531 666.366 239.6 671.168 239.898C672.424 239.987 673.85 241.095 673.355 241.539C669.501 244.977 674.641 247.099 671.015 250.731C668.612 253.133 670.281 255.813 670.113 258.693C662.616 261.007 662.859 267.087 650.074 268.478C644.038 266.537 633.938 269.582 625.094 270.23C623.859 270.32 622.282 270.868 621.27 270.804C609.178 270.002 597.162 269.124 584.083 268.192L591.142 265.807C587.966 265.952 585.821 265.743 584.583 266.223C583.345 266.703 582.892 267.992 581.591 268.761C581.004 269.109 579.059 269.182 577.941 269.143C577.424 269.129 576.933 268.455 577.231 268.246C579.452 266.66 581.874 265.113 584.437 263.413L574.415 259.013L579.024 255.027C573.587 256.693 574.555 254.401 573.208 253.455C571.748 252.555 570.158 251.714 568.444 250.933C573.542 246.763 580.074 245.539 587.755 244.883L579.872 241.804" fill="#E5F1F3"/>
<path d="M221.51 624.879L224.281 620.843L217.304 622.047L209.624 611.24C210.326 610.65 210.931 610.05 211.432 609.445C216.329 602.014 228.636 597.708 241.687 594.32C251.981 591.632 262.47 589.515 272.892 588.019C279.787 586.71 286.491 586.594 291.705 587.695L261.2 592.094L260.748 593.184C262.34 593.208 263.997 593.147 265.694 593.001C272.669 592.093 279.684 590.992 286.634 590.161C289.707 589.794 294.031 588.841 292.185 591.92C291.616 592.87 294.675 593.667 296.096 594.523C297.345 595.274 298.639 596.006 299.654 596.605C297.107 599.666 292.291 599.354 288.419 601.098L299.872 600.357L301.393 604.274C299.103 604.986 295.673 605.9 298.977 607.212C302.537 608.635 302.731 610.376 297.06 612.75C296.544 612.967 295.833 613.442 295.91 613.616C297.368 616.959 291.075 618.416 286.24 619.569C274.674 621.925 263.08 623.587 251.766 624.511C249.083 624.823 242.874 625.478 246.088 622.017C246.283 621.824 244.475 621.544 243.588 621.288C242.552 621.983 240.441 623.012 240.661 623.321C240.99 623.547 241.095 623.856 240.96 624.197C240.824 624.538 240.454 624.891 239.912 625.198C239.37 625.505 238.687 625.748 237.975 625.888C237.263 626.027 236.563 626.055 235.991 625.966C232.23 624.453 224.754 626.802 221.486 624.87" fill="#E5F1F3"/>
<path d="M856.871 478.758L851.212 484.504C849.024 486.726 847.309 489.178 841.122 489.273C840.577 489.366 840.038 489.523 839.555 489.729C839.072 489.935 838.662 490.182 838.363 490.448C836.464 493.131 831.392 493.49 827.868 494.96C818.324 498.94 809.037 498.95 799.957 499.468C794.801 499.759 792.326 498.687 792.113 495.523C791.87 491.975 793.737 487.694 789.657 484.97C791.556 482.968 787.639 480.931 794.359 478.924C795.447 478.497 796.32 477.934 796.812 477.341C804.285 469.463 817.11 465.132 831.812 461.794C839.148 459.705 846.725 458.249 854.11 457.51C857.17 457.383 860.158 457.371 863.05 457.474C863.999 457.505 865.278 457.926 865.144 458.315C864.041 461.61 866.538 464.266 865.473 467.467C864.247 471.19 861.305 475.052 856.871 478.758" fill="#E5F1F3"/>
<path d="M189.322 394.093L177.917 396.464C181.643 397.053 182.903 397.267 184.2 397.452C188.503 398.057 188.504 398.05 185.869 401.304C185.542 401.713 184.844 402.325 185.089 402.495C186.345 403.216 186.831 404.245 186.465 405.404C186.098 406.564 184.901 407.782 183.08 408.847C179.185 411.456 174.497 413.839 169.288 415.86C149.397 422.466 128.134 426.942 107.553 428.855C103.929 428.958 100.536 428.746 97.5164 428.228L100.469 425.815C96.1357 425.678 93.6057 424.941 95.329 422.182C95.497 421.676 95.4081 421.206 95.0697 420.812C94.7314 420.417 94.1538 420.11 93.3868 419.917C88.6656 419.289 93.953 416.618 92.3503 415.441C98.4891 414.18 95.7037 411.077 100.762 409.512C105.587 408.027 110.334 405.863 115.118 404.997C125.692 402.963 136.265 401.446 146.652 400.473C148.856 400.373 151.169 400.049 153.456 399.52C155.742 398.991 157.954 398.269 159.961 397.395C166.057 394.537 173.22 392.405 180.426 391.306C186.654 390.395 186.663 390.336 189.322 394.093" fill="#E5F1F3"/>
<path d="M287.219 520.514C288.649 520.529 289.995 520.645 291.22 520.859C292.016 521.063 291.761 522 292.578 522.146C293.395 522.292 295.207 521.749 296.289 521.827C297.233 521.895 297.656 522.719 298.496 522.623C300.141 522.397 301.801 521.973 303.317 521.393C304.443 520.829 305.428 520.206 306.229 519.549C303.408 519.766 301.132 519.938 298.839 520.117C303.483 518.054 307.877 515.712 312.614 517.233L307.442 520.009C314.072 520.874 314.067 516.97 318.781 515.805C316.306 517.827 317.47 519.378 314.93 521.409C313.738 522.366 316.146 523.858 317.169 525.507L300.03 531.763L306.701 532.969L300.698 542.451C295.422 543.807 290.838 544.811 286.439 546.134C282.628 547.284 279.157 548.99 275.331 550.087C264.652 552.831 253.722 554.509 243.351 554.998C239.603 555.297 233.931 555.516 236.491 552.009C230.586 551.582 233.152 548.044 230.976 546.2C229.817 544.908 229.819 543.266 230.982 541.55C232.146 539.834 234.399 538.147 237.367 536.771C246.984 531.925 258.142 527.957 269.812 525.235C275.437 523.709 281.066 521.946 287.213 520.513" fill="#E5F1F3"/>
<path d="M39.8643 593.567L34.5874 596.671C44.3326 597.618 52.8768 592.129 62.8656 591.99C61.3138 592.917 59.6064 593.791 57.7753 594.597C54.6914 595.643 51.5536 596.627 48.3743 597.544C52.1106 597.666 56.3521 597.071 60.3383 595.864C64.4172 599.866 64.4172 599.866 60.3301 603.915C53.1812 605.51 46.1669 607.541 39.5006 609.947C32.804 612.859 25.8872 613.365 19.259 615.377C12.6261 617.192 5.82477 618.585 -0.918697 619.51C-4.73916 620.224 -8.49188 620.417 -11.7084 620.066C-15.1851 619.456 -19.8888 618.159 -19.4696 616.594C-18.7832 614.017 -22.4766 614.344 -24.4005 613.378C-25.9674 612.804 -27.0472 611.982 -27.5459 610.984C-28.0447 609.986 -27.9474 608.842 -27.2624 607.652C-26.1579 606.07 -26.4394 604.076 -24.3678 603.004C-19.3804 600.304 -13.6715 597.923 -7.55202 595.992C3.85734 592.711 15.4302 589.734 27.0943 587.081C29.9951 586.416 33.2589 587.06 37.6246 587.107L31.5412 589.314C38.0811 589.266 37.2088 592.333 39.8704 593.568" fill="#E5F1F3"/>
<path d="M502.682 574.045C500.215 576.225 500.734 577.891 496.107 579.718L497.089 577.032C491.712 577.456 486.285 577.968 480.982 578.249C479.636 578.322 477.611 577.802 477.724 577.308C478.332 574.621 474.144 573.473 473.41 571.279C473.315 570.182 473.846 568.979 474.95 567.783C475.419 567.194 477.677 566.625 478.152 566.037C478.483 565.245 478.515 564.486 478.248 563.797C486.337 563.2 486.56 563.276 493.548 559.145C497.735 556.672 502.852 556.463 507.556 554.85L504.006 553.256C505.896 552.685 508.098 551.67 509.196 551.749C522.891 552.766 523.207 552.781 534.918 549.893C530.68 547.488 523.319 550.988 517.046 550.757C518.239 549.846 519.425 548.454 520.319 548.331C529.107 547.216 538.378 545.213 544.384 548.381C546.257 549.364 547.507 549.609 545.781 551.393C544.847 552.588 544.516 553.767 544.818 554.814C545.165 557.553 545.857 560.22 546.464 563.168L542.561 564.033C537.735 565.976 542.726 568.722 534.858 568.54C532.618 568.489 535.063 571.508 529.458 571.106C527.297 570.951 522.918 573.001 519.803 573.968L515.548 572.416L513.412 573.277L517.799 575.535C513.158 576.425 510.465 576.945 506.938 577.625L502.682 574.045Z" fill="#E5F1F3"/>
<path d="M219.12 339.222L232 335.937L227.637 333.886C231.986 331.782 237.024 330.102 242.238 329.017C253.242 326.477 264.361 324.696 275.429 322.111C278.867 321.408 282.303 321.04 285.506 321.032C288.71 321.024 291.607 321.376 294.005 322.064C292.15 325.049 285.361 325.239 281.373 327.553L292.563 328.355L282.794 341.644C272.567 345.141 261.645 347.67 250.877 349.034C244.865 349.812 238.87 351.89 232.548 352.199C230.058 352.32 228.667 350.534 225.064 352.368C224.319 352.129 223.616 351.866 222.96 351.578C228.176 348.566 220.992 346.908 225.367 343.962C225.654 343.771 224.076 343.083 223.219 342.697C222.142 342.347 221.138 341.954 220.212 341.522C219.635 340.82 219.263 340.054 219.104 339.238" fill="#E5F1F3"/>
<path d="M14.8241 274.834L3.5297 277.315C4.85327 277.716 5.51188 278.169 6.46077 278.155C11.1118 278.017 15.8473 277.756 21.2102 277.486L17.4339 281.239L10.247 282.341L19.7777 283.022C19.4069 283.665 19.2035 284.298 19.1725 284.904C19.515 285.998 20.9754 287.807 20.5709 287.952C16.4791 289.418 15.9202 291.543 13.2129 293.061C11.4021 294.282 8.99914 295.321 6.36464 296.021C3.73014 296.721 1.00627 297.043 -1.39807 296.941C-3.03362 296.824 -3.6343 295.487 -5.17402 295.57C-6.43974 295.636 -8.35348 297.275 -10.115 297.681C-10.9936 297.838 -11.8575 297.894 -12.6286 297.842C-13.3996 297.791 -14.0534 297.634 -14.5306 297.387C-15.2619 295.552 -18.7563 295.687 -21.7924 295.591C-23.4501 295.634 -24.8212 295.343 -25.6138 294.779C-26.4063 294.214 -26.5579 293.423 -26.0361 292.571C-25.0939 290.585 -26.8608 289.977 -29.7689 289.338C-31.861 288.999 -33.259 288.196 -33.6694 287.097C-34.0799 285.998 -33.4711 284.689 -31.9707 283.444C-30.8002 282.406 -29.8652 281.348 -29.1879 280.294C-27.6229 277.657 -23.2505 274.503 -19.0563 273.954C-8.78652 272.588 1.90009 270.32 11.1423 271.544C14.741 272.022 14.5478 273.366 14.8241 274.834Z" fill="#E5F1F3"/>
<path d="M147.54 483.745L139.653 488.752C140.73 489.407 142.392 489.768 144.38 489.778C146.367 489.788 148.569 489.447 150.64 488.807C152.025 491.27 145.176 492.349 143.612 494.553C145.382 494.893 147.22 495.259 149.011 495.622C150.563 497.548 143.083 498.643 143.862 500.892C144.641 503.141 137.923 503.27 135.443 504.999C133.607 506.021 131.359 506.847 128.998 507.368C121.48 509.357 113.805 509.194 106.131 512.051C104.298 512.735 100.993 512.062 97.5114 511.99C104.104 508.687 94.3331 507.75 100.067 504.53C98.0849 503.268 91.64 503.858 94.7928 499.979L102.61 498.463L98.4602 496.536C99.6775 494.331 103.95 493.587 106.743 493.035C115.801 491.272 124.651 488.49 132.455 484.951C133.65 484.352 135.003 483.843 136.429 483.454C137.856 483.065 139.324 482.806 140.742 482.693C142.16 482.58 143.497 482.615 144.667 482.796C145.837 482.977 146.815 483.3 147.54 483.745" fill="#E5F1F3"/>
<path d="M533.748 500.867L530.431 491.938L535.81 486.572C543.346 484.872 551.18 484.707 558.762 481.948C566.645 482.171 574.268 479.598 582.067 477.465C584.572 476.767 587.605 477.157 591.065 477.052C590.603 478.007 589.65 478.92 589.988 479.445C593.321 484.948 584.033 489.251 574.478 492.736C566.103 495.7 557.286 498.146 548.341 499.986C543.287 500.701 538.348 500.999 533.742 500.866" fill="#E5F1F3"/>
</g>
<defs>
<clipPath id="clip0_1_689">
<rect width="1440" height="593" fill="white"/>
</clipPath>
</defs>
</svg>
