<svg width="18" height="18" viewBox="0 0 18 18" fill="none" xmlns="http://www.w3.org/2000/svg">
<g id="IMAGE" clip-path="url(#clip0_1_758)">
<g id="social-instagram" opacity="0.5">
<path id="Path 443" opacity="0.5" d="M11.9895 9.00048C11.992 8.60667 11.9157 8.21634 11.7651 7.8525C11.6144 7.48866 11.3924 7.15868 11.1122 6.88203C10.8367 6.60372 10.5086 6.38306 10.1469 6.23295C9.78526 6.08283 9.39735 6.00625 9.0058 6.00768C8.61238 6.00457 8.22231 6.08023 7.85858 6.23021C7.49484 6.38019 7.16478 6.60146 6.88784 6.88098C6.60839 7.15798 6.38717 7.48811 6.23723 7.85194C6.08728 8.21576 6.01164 8.60592 6.01475 8.99943C6.00998 9.3923 6.08373 9.78217 6.23168 10.1461C6.37962 10.5101 6.59877 10.8408 6.87626 11.1189C7.1545 11.3984 7.48596 11.6192 7.85101 11.7683C8.21606 11.9174 8.6073 11.9918 9.00159 11.987C9.39306 11.9885 9.78093 11.9121 10.1426 11.7622C10.5042 11.6123 10.8324 11.3918 11.108 11.1137C11.3882 10.837 11.6102 10.507 11.7608 10.1432C11.9115 9.77936 11.9878 9.38903 11.9853 8.99522L11.9895 9.00048ZM13.6156 9.00048C13.6129 10.2254 13.1256 11.3995 12.2601 12.2661C11.3947 13.1291 10.2236 13.6152 9.00159 13.6187C7.77695 13.6161 6.60315 13.1286 5.73671 12.263C4.87124 11.3963 4.38392 10.2223 4.38126 8.99732C4.38392 7.77239 4.87124 6.59832 5.73671 5.73168C6.60297 4.86562 7.77679 4.3778 9.00159 4.37486C10.2262 4.37752 11.4 4.86495 12.2665 5.73063C13.1308 6.59778 13.6169 7.77179 13.6188 8.99627L13.6156 9.00048ZM14.8794 4.2021C14.8767 4.48795 14.7635 4.76166 14.5635 4.96584C14.4635 5.06552 14.3442 5.14368 14.2128 5.19549C14.0815 5.2473 13.941 5.27168 13.7999 5.26712C13.6588 5.27168 13.5183 5.2473 13.387 5.19549C13.2556 5.14368 13.1363 5.06552 13.0363 4.96584C12.9367 4.86584 12.8585 4.74649 12.8067 4.61514C12.7549 4.48379 12.7306 4.34322 12.7351 4.2021C12.7306 4.06097 12.7549 3.92041 12.8067 3.78906C12.8585 3.65771 12.9367 3.53836 13.0363 3.43836C13.1363 3.33868 13.2556 3.26052 13.387 3.20871C13.5183 3.15689 13.6588 3.13252 13.7999 3.13708C13.941 3.13252 14.0815 3.15689 14.2128 3.20871C14.3442 3.26052 14.4635 3.33868 14.5635 3.43836C14.7632 3.64228 14.8765 3.91556 14.8794 4.20105V4.2021ZM9.00159 1.62962C8.2791 1.61627 7.37898 1.61627 6.30122 1.62962C5.42127 1.61391 4.54427 1.73582 3.70196 1.99094C3.50955 2.0671 3.32477 2.16127 3.15009 2.27221C2.97562 2.38502 2.81389 2.51641 2.66773 2.66409C2.52009 2.81028 2.38873 2.97205 2.27594 3.14656C2.16503 3.32128 2.07087 3.50611 1.99474 3.69856C1.73968 4.54107 1.6178 5.41828 1.6335 6.29843C1.61805 7.37644 1.61033 8.27713 1.61033 9.00048C1.61033 9.72384 1.617 10.6242 1.63034 11.7015C1.61533 12.5829 1.73829 13.4612 1.99474 14.3045C2.07087 14.497 2.16503 14.6818 2.27594 14.8565C2.38873 15.031 2.52009 15.1928 2.66773 15.339C2.81389 15.4867 2.97562 15.6181 3.15009 15.7309C3.32477 15.8418 3.50955 15.936 3.70196 16.0121C4.54427 16.2673 5.42127 16.3892 6.30122 16.3735C7.37828 16.3868 8.2784 16.3935 9.00159 16.3935C9.72478 16.3935 10.6249 16.3868 11.702 16.3735C12.5819 16.3892 13.4589 16.2673 14.3012 16.0121C14.4936 15.936 14.6784 15.8418 14.8531 15.7309C15.0276 15.6181 15.1893 15.4867 15.3354 15.339C15.4831 15.1928 15.6144 15.031 15.7272 14.8565C15.8381 14.6818 15.9323 14.497 16.0084 14.3045C16.2635 13.462 16.3854 12.5848 16.3697 11.7046C16.383 10.6273 16.3897 9.727 16.3897 9.00364C16.3897 8.28029 16.3827 7.37855 16.3686 6.29843C16.3843 5.41828 16.2624 4.54107 16.0074 3.69856C15.9312 3.50611 15.8371 3.32128 15.7262 3.14656C15.6134 2.97205 15.482 2.81028 15.3344 2.66409C15.1882 2.51641 15.0265 2.38502 14.852 2.27221C14.6774 2.16127 14.4926 2.0671 14.3002 1.99094C13.4578 1.73582 12.5809 1.61391 11.7009 1.62962C10.6217 1.61627 9.72197 1.61627 9.00159 1.62962ZM17.9958 9.00364C18.0091 10.2355 17.9891 11.4736 17.9358 12.718C17.9149 13.408 17.7932 14.0912 17.5745 14.7459C17.3447 15.398 16.9669 15.9879 16.4708 16.4693C15.9879 16.9649 15.3967 17.3418 14.7436 17.5702C14.089 17.7889 13.406 17.9106 12.7162 17.9315C11.4685 17.9884 10.2303 18.0084 9.00159 17.9915C7.77006 18.0084 6.53187 17.9898 5.287 17.9357C4.59699 17.9135 3.91395 17.7903 3.25962 17.5702C2.60547 17.3425 2.01312 16.966 1.52923 16.4704C1.03258 15.9877 0.654748 15.3963 0.425495 14.7427C0.206793 14.088 0.0850886 13.4048 0.0642526 12.7149C0.0101891 11.4718 -0.00982152 10.2337 0.00422096 9.00048C-0.0091194 7.76867 0.0108912 6.53054 0.0642526 5.28608C0.0850886 4.59612 0.206793 3.91292 0.425495 3.25822C0.654748 2.60465 1.03258 2.01325 1.52923 1.53059C2.01147 1.03396 2.60237 0.656048 3.25541 0.426596C3.90995 0.207843 4.59299 0.0861113 5.28279 0.0652704C6.52765 0.0118965 7.7655 -0.00811985 8.99632 0.00522362C10.2278 -0.00811985 11.4657 0.0118965 12.7099 0.0652704C13.3997 0.0861113 14.0827 0.207843 14.7372 0.426596C15.389 0.656178 15.9788 1.0337 16.4603 1.52954C16.9568 2.01189 17.3346 2.60292 17.564 3.25612C17.7827 3.91082 17.9044 4.59401 17.9252 5.28397C17.98 6.53194 18.0007 7.77043 17.9874 8.99943L17.9958 9.00364Z" fill="#0C2050"/>
</g>
</g>
<defs>
<clipPath id="clip0_1_758">
<rect width="18" height="18" fill="white"/>
</clipPath>
</defs>
</svg>
