<svg width="25" height="17" viewBox="0 0 25 17" fill="none" xmlns="http://www.w3.org/2000/svg">
<g id="Frame" clip-path="url(#clip0_13_78)">
<g id="Group">
<path id="Vector" d="M3.83225 2H0V0H6.46187L7.12189 4H23.5294V9.93845L5.54325 12.3694L3.83225 2ZM22.7941 17C21.5758 17 20.5882 16.3284 20.5882 15.5C20.5882 14.6716 21.5758 14 22.7941 14C24.0124 14 25 14.6716 25 15.5C25 16.3284 24.0124 17 22.7941 17ZM8.08823 17C6.86996 17 5.88235 16.3284 5.88235 15.5C5.88235 14.6716 6.86996 14 8.08823 14C9.30651 14 10.2941 14.6716 10.2941 15.5C10.2941 16.3284 9.30651 17 8.08823 17Z" fill="white"/>
</g>
</g>
<defs>
<clipPath id="clip0_13_78">
<rect width="25" height="17" fill="white"/>
</clipPath>
</defs>
</svg>
