<svg width="18" height="15" viewBox="0 0 18 15" fill="none" xmlns="http://www.w3.org/2000/svg">
<g id="IMAGE" clip-path="url(#clip0_1_753)">
<g id="social-twitter" opacity="0.5">
<path id="Path 440" opacity="0.5" d="M17.9999 1.7822C17.3247 2.08472 16.6102 2.28516 15.8789 2.37724C16.2597 2.14035 16.5969 1.83645 16.8749 1.47947C17.1557 1.11929 17.37 0.709583 17.5075 0.270466C16.7806 0.715349 15.9835 1.02654 15.1522 1.18999C14.814 0.818678 14.4062 0.521071 13.9534 0.314929C13.4831 0.101466 12.9737 -0.00626968 12.4595 -0.00103896C11.9744 -0.00260398 11.4939 0.0945883 11.0458 0.284908C10.5977 0.475228 10.1908 0.75489 9.84878 1.10769C9.50487 1.45854 9.23226 1.87593 9.04673 2.33565C8.86121 2.79537 8.76646 3.2883 8.76799 3.78586C8.76845 4.07694 8.79937 4.36714 8.86021 4.65146C7.37105 4.57117 5.91531 4.16849 4.58868 3.46989C3.3012 2.78833 2.16546 1.84034 1.25316 0.685767C0.934714 1.27003 0.765324 1.92735 0.760712 2.59672C0.752836 3.22932 0.903341 3.85341 1.19782 4.40928C1.48538 4.95089 1.89676 5.41284 2.39666 5.75546C1.80892 5.73804 1.2339 5.5758 0.720136 5.28245V5.3184C0.722641 6.19918 1.0217 7.05203 1.5667 7.73263C2.10677 8.40326 2.85598 8.86206 3.68771 9.0315C3.36903 9.12936 3.03823 9.17939 2.70559 9.18003C2.47507 9.18056 2.24513 9.15647 2.01949 9.10813C2.24878 9.85359 2.70035 10.5064 3.31054 10.9746C3.93375 11.4524 4.68607 11.7201 5.46382 11.7409C4.82346 12.2482 4.10717 12.6456 3.34281 12.9177C2.54851 13.203 1.71385 13.3523 0.872296 13.3595C0.580392 13.359 0.288777 13.3407 -0.00100708 13.3046C0.825105 13.8484 1.72163 14.2704 2.66224 14.5581C3.63477 14.8552 4.64459 15.0041 5.65932 14.9999C9.07016 14.8681 11.6719 13.6988 13.4646 11.4921C15.1867 9.47734 16.1471 6.89572 16.1712 4.21629C16.1712 4.05988 16.1654 3.89749 16.1537 3.72909C16.8734 3.19567 17.4974 2.53822 17.9981 1.78598L17.9999 1.7822Z" fill="#0C2050"/>
</g>
</g>
<defs>
<clipPath id="clip0_1_753">
<rect width="18" height="15" fill="white"/>
</clipPath>
</defs>
</svg>
