<svg width="18" height="13" viewBox="0 0 18 13" fill="none" xmlns="http://www.w3.org/2000/svg">
<g id="IMAGE" clip-path="url(#clip0_1_763)">
<g id="social-youtube" opacity="0.5">
<path id="Path 442" opacity="0.5" d="M17.6135 2.04809C17.8005 2.95954 17.9092 3.88604 17.9383 4.81696C17.9794 5.84778 18 6.4113 18 6.50752C18 6.60375 17.9794 7.16696 17.9383 8.19715C17.9093 9.12838 17.8005 10.0552 17.6135 10.967C17.5016 11.3561 17.3002 11.7119 17.0263 12.0047C16.7507 12.2989 16.3998 12.5075 16.0139 12.6066C14.6823 12.825 13.336 12.9363 11.9874 12.9396C10.2044 12.9817 9.20738 13.0028 8.99632 13.0028C8.78525 13.0028 7.78822 12.9817 6.00522 12.9396C4.65664 12.9363 3.31038 12.825 1.97873 12.6066C1.5928 12.5075 1.24193 12.2989 0.966357 12.0047C0.695415 11.7111 0.496928 11.3552 0.387463 10.967C0.199807 10.0556 0.0904817 9.12906 0.0607424 8.19809C0.0202475 7.16727 0 6.60375 0 6.50752C0 6.4113 0.0205543 5.84778 0.0616627 4.81696C0.0910991 3.88602 0.200117 2.95951 0.387463 2.04809C0.496554 1.65777 0.69829 1.30123 0.97464 1.01035C1.25243 0.720879 1.60274 0.515552 1.98701 0.416958C3.31722 0.184609 4.66412 0.0672156 6.0135 0.0660146C7.7965 0.0238763 8.79354 0.00280762 9.0046 0.00280762C9.21566 0.00280762 10.2127 0.0238763 11.9957 0.0660146C13.3451 0.0672156 14.692 0.184609 16.0222 0.416958C16.4065 0.515552 16.7568 0.720879 17.0346 1.01035C17.3099 1.30154 17.5107 1.65805 17.619 2.04809H17.6135ZM7.15748 9.24054L11.8613 6.50469L7.15748 3.75658V9.24054Z" fill="#0C2050"/>
</g>
</g>
<defs>
<clipPath id="clip0_1_763">
<rect width="18" height="13" fill="white"/>
</clipPath>
</defs>
</svg>
